<svg width="47" height="23" viewBox="0 0 47 23" fill="none" xmlns="http://www.w3.org/2000/svg">
<path d="M3.61281 2.29695C2.95961 1.40622 1.708 1.21366 0.817273 1.86687C-0.0734577 2.52007 -0.266012 3.77167 0.38719 4.6624L2 3.47968L3.61281 2.29695ZM45.0951 21.9774C46.1984 21.9249 47.0503 20.9879 46.9977 19.8845L46.1416 1.90492C46.089 0.801599 45.152 -0.0502264 44.0487 0.00231242C42.9454 0.0548515 42.0936 0.99186 42.1461 2.09518L42.9071 18.0771L26.9252 18.8381C25.8219 18.8907 24.9701 19.8277 25.0226 20.931C25.0752 22.0343 26.0122 22.8861 27.1155 22.8336L45.0951 21.9774ZM27.829 5.56411L29.1425 7.07227L27.829 5.56411ZM29.1584 5.57825L30.5038 4.09837L29.1584 5.57825ZM12.3569 17.6027L10.7441 18.7854L12.3569 17.6027ZM13.8201 17.7654L12.5065 16.2573L13.8201 17.7654ZM2 3.47968L0.38719 4.6624L10.7441 18.7854L12.3569 17.6027L13.9697 16.42L3.61281 2.29695L2 3.47968ZM13.8201 17.7654L15.1336 19.2736L29.1425 7.07227L27.829 5.56411L26.5154 4.05595L12.5065 16.2573L13.8201 17.7654ZM29.1584 5.57825L27.8131 7.05813L43.6547 21.4596L45 19.9797L46.3453 18.4998L30.5038 4.09837L29.1584 5.57825ZM27.829 5.56411L29.1425 7.07227C28.76 7.40549 28.1885 7.39941 27.8131 7.05813L29.1584 5.57825L30.5038 4.09837C29.3776 3.07455 27.6632 3.05631 26.5154 4.05595L27.829 5.56411ZM12.3569 17.6027L10.7441 18.7854C11.7824 20.2014 13.8095 20.4268 15.1336 19.2736L13.8201 17.7654L12.5065 16.2573C12.9479 15.8728 13.6236 15.948 13.9697 16.42L12.3569 17.6027Z" fill="#000000"/>
</svg>
